<svg width="16" height="14" viewBox="0 0 16 14" fill="none" xmlns="http://www.w3.org/2000/svg">
<path d="M15 12C15.2652 12 15.5195 12.1054 15.707 12.293C15.8946 12.4805 16 12.7348 16 13C16 13.2652 15.8946 13.5195 15.707 13.707C15.5195 13.8946 15.2652 14 15 14H1C0.734784 14 0.480505 13.8946 0.292969 13.707C0.105433 13.5195 0 13.2652 0 13C0 12.7348 0.105433 12.4805 0.292969 12.293C0.480505 12.1054 0.734784 12 1 12H15ZM15 6C15.2652 6 15.5195 6.10543 15.707 6.29297C15.8946 6.4805 16 6.73478 16 7C16 7.26522 15.8946 7.5195 15.707 7.70703C15.5195 7.89457 15.2652 8 15 8H1C0.734784 8 0.480505 7.89457 0.292969 7.70703C0.105432 7.5195 0 7.26522 0 7C0 6.73478 0.105432 6.4805 0.292969 6.29297C0.480505 6.10543 0.734784 6 1 6H15ZM15 0C15.2652 0 15.5195 0.105433 15.707 0.292969C15.8946 0.480505 16 0.734784 16 1C16 1.26522 15.8946 1.51949 15.707 1.70703C15.5195 1.89457 15.2652 2 15 2H1C0.734784 2 0.480505 1.89457 0.292969 1.70703C0.105432 1.51949 0 1.26522 0 1C0 0.734784 0.105432 0.480505 0.292969 0.292969C0.480505 0.105432 0.734784 0 1 0H15Z" fill="#FFE05E"/>
</svg>
