<svg width="18" height="18" viewBox="0 0 18 18" fill="none" xmlns="http://www.w3.org/2000/svg">
<g clip-path="url(#clip0_96_61)">
<path fill-rule="evenodd" clip-rule="evenodd" d="M6.18754 1.12496C5.83473 1.12522 5.49087 1.23606 5.20432 1.44189C4.91777 1.64773 4.70294 1.9382 4.59004 2.27246C3.88242 2.31071 3.38629 2.39958 2.97004 2.61333C2.33653 2.93805 1.82101 3.45356 1.49629 4.08708C1.12842 4.80933 1.12842 5.75208 1.12842 7.64208V12.5921C1.12842 14.4821 1.12842 15.4271 1.49629 16.1471C1.82101 16.7806 2.33653 17.2961 2.97004 17.6208C3.69229 17.9887 4.63504 17.9887 6.52504 17.9887H9.38254C8.92981 17.6688 8.52128 17.2905 8.16754 16.8637H6.52504C5.56092 16.8637 4.90504 16.8637 4.39879 16.8221C3.90604 16.7816 3.65292 16.7085 3.47742 16.6196C3.05407 16.4039 2.70988 16.0597 2.49417 15.6363C2.40417 15.4608 2.33104 15.2077 2.29167 14.7138C2.25004 14.2076 2.24892 13.5551 2.24892 12.5876V7.63758C2.24892 6.67458 2.25004 6.01758 2.29167 5.51133C2.33217 5.01971 2.40529 4.76658 2.49417 4.59108C2.71017 4.16808 3.05442 3.82383 3.47742 3.60783C3.65292 3.51783 3.90604 3.44471 4.39879 3.40533L4.49892 3.39746V3.92508C4.49892 4.37263 4.67671 4.80186 4.99318 5.11832C5.30964 5.43479 5.73887 5.61258 6.18642 5.61258H11.8114C12.259 5.61258 12.6882 5.43479 13.0047 5.11832C13.3211 4.80186 13.4989 4.37263 13.4989 3.92508V3.39633L13.599 3.40533C14.0918 3.44471 14.3449 3.51783 14.5204 3.60783C14.9434 3.82383 15.2877 4.16808 15.5037 4.59108C15.5937 4.76658 15.6668 5.01858 15.7062 5.51246C15.7444 5.97821 15.7478 6.56996 15.7489 7.41371C16.1524 7.62071 16.5274 7.86708 16.8739 8.15283V7.63871C16.8739 5.74871 16.8739 4.80371 16.506 4.08371C16.1826 3.44928 15.6667 2.93342 15.0323 2.60996C14.6138 2.39621 14.121 2.30621 13.4123 2.26908C13.2994 1.93482 13.0846 1.64435 12.798 1.43852C12.5115 1.23269 12.1676 1.12185 11.8148 1.12158H11.5133C11.124 0.448832 10.3973 -0.00341797 9.56704 -0.00341797H8.44204C7.60954 -0.00341797 6.87829 0.448832 6.49579 1.12158H6.19429L6.18754 1.12496ZM7.30017 1.96871C7.2508 2.05422 7.17979 2.12522 7.09429 2.17459C7.00878 2.22396 6.91178 2.24995 6.81304 2.24996H6.18754C6.03836 2.24996 5.89529 2.30922 5.7898 2.41471C5.68431 2.5202 5.62504 2.66327 5.62504 2.81246V3.93746C5.62504 4.08664 5.68431 4.22972 5.7898 4.3352C5.89529 4.44069 6.03836 4.49996 6.18754 4.49996H11.8125C11.9617 4.49996 12.1048 4.44069 12.2103 4.3352C12.3158 4.22972 12.375 4.08664 12.375 3.93746V2.81246C12.375 2.66327 12.3158 2.5202 12.2103 2.41471C12.1048 2.30922 11.9617 2.24996 11.8125 2.24996H11.187C11.0883 2.24995 10.9913 2.22396 10.9058 2.17459C10.8203 2.12522 10.7493 2.05422 10.6999 1.96871L10.5379 1.68746C10.4392 1.51607 10.2971 1.37372 10.1259 1.27477C9.95462 1.17581 9.76032 1.12375 9.56254 1.12383H8.43754C8.23977 1.12375 8.04547 1.17581 7.87423 1.27477C7.70299 1.37372 7.56086 1.51607 7.46217 1.68746L7.30017 1.96871Z" fill="black" fill-opacity="0.7"/>
<path d="M13.5 10.6875C13.5 10.5383 13.4407 10.3952 13.3352 10.2898C13.2298 10.1843 13.0867 10.125 12.9375 10.125C12.7883 10.125 12.6452 10.1843 12.5398 10.2898C12.4343 10.3952 12.375 10.5383 12.375 10.6875V12.9375C12.375 13.0867 12.4343 13.2298 12.5398 13.3352C12.6452 13.4407 12.7883 13.5 12.9375 13.5H14.625C14.7742 13.5 14.9173 13.4407 15.0227 13.3352C15.1282 13.2298 15.1875 13.0867 15.1875 12.9375C15.1875 12.7883 15.1282 12.6452 15.0227 12.5398C14.9173 12.4343 14.7742 12.375 14.625 12.375H13.5V10.6875Z" fill="black" fill-opacity="0.7"/>
<path fill-rule="evenodd" clip-rule="evenodd" d="M12.9375 18C15.7387 18 18 15.7387 18 12.9375C18 10.1363 15.7387 7.875 12.9375 7.875C10.1363 7.875 7.875 10.1363 7.875 12.9375C7.875 15.7387 10.1363 18 12.9375 18ZM12.9375 16.875C15.1087 16.875 16.875 15.1087 16.875 12.9375C16.875 10.7663 15.1087 9 12.9375 9C10.7663 9 9 10.7663 9 12.9375C9 15.1087 10.7663 16.875 12.9375 16.875Z" fill="black" fill-opacity="0.7"/>
</g>
<defs>
<clipPath id="clip0_96_61">
<rect width="18" height="18" fill="white"/>
</clipPath>
</defs>
</svg>
