<svg width="25" height="20" viewBox="0 0 25 20" fill="none" xmlns="http://www.w3.org/2000/svg">
<path d="M24.1905 14.2719V7.96955L24.5834 7.76213C24.8389 7.62931 24.9998 7.36601 25.0029 7.07775C25.0061 6.79023 24.8502 6.52382 24.5979 6.38517L12.844 0.0961094C12.6088 -0.0327969 12.3244 -0.03204 12.0877 0.0984287L0.398254 6.3953C0.149401 6.534 -0.0044804 6.79726 -0.0029179 7.08283C-0.0013554 7.3684 0.155676 7.6297 0.407653 7.76569L5.54398 10.4997C5.47953 10.6133 5.43968 10.743 5.43968 10.8829V17.4938C5.43971 17.604 5.46305 17.713 5.50815 17.8136C5.55325 17.9141 5.61911 18.004 5.7014 18.0774C5.87096 18.2278 7.4944 19.5446 12.4581 19.5446C17.4042 19.5446 19.0713 18.3 19.2452 18.1582C19.4268 18.0102 19.5319 17.7883 19.5319 17.5532V10.7727C19.5319 10.6629 19.5088 10.5586 19.4682 10.4641L22.628 8.79491V14.2762C22.1647 14.5473 21.8506 15.0445 21.8506 15.6195C21.8506 16.4824 22.5503 17.182 23.4131 17.182C24.276 17.182 24.9756 16.4824 24.9756 15.6195C24.9756 15.041 24.6573 14.5418 24.1905 14.2719ZM17.9693 17.1055C17.3553 17.4008 15.7303 17.982 12.458 17.982C9.16505 17.982 7.57677 17.3633 7.00216 17.0656V11.2762L12.0756 13.977C12.1895 14.0385 12.3169 14.0708 12.4463 14.0707C12.5724 14.0708 12.6965 14.0401 12.808 13.9813L17.9693 11.2551V17.1055ZM12.4525 12.4044L2.40372 7.0684L12.4701 1.67348L22.5678 7.05277L12.4525 12.4044Z" fill="white"/>
</svg>
