<svg width="23" height="19" viewBox="0 0 23 19" fill="none" xmlns="http://www.w3.org/2000/svg">
<path d="M11.1667 4.22188C11.1667 2.3125 9.60417 0.75 7.69479 0.75H0.75V13.25H7.7375C11.1667 13.25 11.1667 16.7229 11.1667 16.7229M11.1667 4.22188C11.1667 2.31146 12.7292 0.75 14.6385 0.75H21.5833V13.25H14.6385C11.1667 13.25 11.1667 16.7229 11.1667 16.7229M11.1667 4.22188V16.7229M13.1198 17.8937C13.3371 17.4436 13.6757 17.063 14.0975 16.7947C14.5192 16.5264 15.0075 16.3811 15.5073 16.375H20.5417M9.21354 17.8937C9.00016 17.4406 8.66252 17.0573 8.23988 16.7884C7.81723 16.5195 7.32695 16.3762 6.82604 16.375H1.79167" stroke="white" stroke-width="1.5" stroke-miterlimit="10" stroke-linecap="round" stroke-linejoin="round"/>
</svg>
